<?xml version="1.0" ?><!DOCTYPE svg  PUBLIC '-//W3C//DTD SVG 1.1//EN'  'http://www.w3.org/Graphics/SVG/1.1/DTD/svg11.dtd'><svg enable-background="new 0 0 512 512" height="100%" id="Layer_1" version="1.1" viewBox="0 0 512 512" width="100%" xml:space="preserve" xmlns="http://www.w3.org/2000/svg" xmlns:xlink="http://www.w3.org/1999/xlink"><path d="M294.488,127.433V0l170.799,170.802H337.856C313.943,170.802,294.488,151.346,294.488,127.433z   M465.287,190.818V512H46.713V0h227.759v127.433c0,34.951,28.434,63.386,63.385,63.386H465.287z M80.773,66.912  c0,5.527,4.482,10.01,10.01,10.01h144.679c5.523,0,10.007-4.483,10.007-10.01c0-5.525-4.483-10.008-10.007-10.008H90.783  C85.256,56.904,80.773,61.387,80.773,66.912z M80.773,161.458c0,5.527,4.482,10.01,10.01,10.01h144.679  c5.523,0,10.007-4.483,10.007-10.01c0-5.525-4.483-10.006-10.007-10.006H90.783C85.256,151.451,80.773,155.933,80.773,161.458z   M431.236,445.094c0-5.523-4.483-10.006-10.01-10.006H90.783c-5.527,0-10.01,4.483-10.01,10.006c0,5.527,4.482,10.01,10.01,10.01  h330.443C426.753,455.104,431.236,450.621,431.236,445.094z M431.236,350.548c0-5.523-4.483-10.006-10.01-10.006H90.783  c-5.527,0-10.01,4.483-10.01,10.006c0,5.527,4.482,10.01,10.01,10.01h330.443C426.753,360.558,431.236,356.075,431.236,350.548z   M431.236,256.003c0-5.523-4.483-10.006-10.01-10.006H90.783c-5.527,0-10.01,4.483-10.01,10.006c0,5.527,4.482,10.01,10.01,10.01  h330.443C426.753,266.013,431.236,261.53,431.236,256.003z" fill="#7F7F7F"/></svg>