<?xml version="1.0" encoding="UTF-8" standalone="no"?>
<!-- Created with Inkscape (http://www.inkscape.org/) -->
<svg
   xmlns:svg="http://www.w3.org/2000/svg"
   xmlns="http://www.w3.org/2000/svg"
   version="1.0"
   width="100%"
   height="100%"
   viewBox="0 0 29 32"
   id="svg2"
   xml:space="preserve">
 <defs
   id="defs4" />
 <g
   transform="matrix(3.76,0,0,3.76,-0.5,-0.95)"
   id="Layer_x0020_1">
  
  
  <g
   id="_199248240">
   <path
   d="M 1.54553,0.66329 C 3.62657,0.39702 5.86595,0.41937 7.27152,0.73033 C 7.6768,3.39358 7.60442,5.96999 7.18467,8.45955 C 4.68063,8.1556 3.15446,7.9963 0.56358,8.47395 C 1.41471,5.46061 0.93956,3.50339 0.69865,1.74835 L 1.54553,0.66329 L 1.54553,0.66329 z "
   style="fill:#dddddd;stroke:#ffffff;stroke-width:0.10643"
   id="_43075032" />
   <g
   id="g13">
    <path
   d="M 1.34235,4.17818 C 1.36091,3.12049 1.37948,2.0628 1.39804,1.00511 C 3.33068,1.00511 5.26331,1.00511 7.19595,1.00511 C 7.15883,3.12049 7.1217,5.23586 7.08457,7.35124 C 5.15193,7.35124 3.2193,7.35124 1.28666,7.35124 C 1.30522,6.29356 1.32379,5.23586 1.34235,4.17818 L 1.34235,4.17818 z "
   style="fill:#fcf9ea"
   id="path2193" />
    <path
   d="M 1.34235,4.17818 C 1.36091,3.12049 1.37948,2.0628 1.39804,1.00511 C 3.33068,1.00511 5.26331,1.00511 7.19595,1.00511 C 7.15882,3.12076 7.12169,5.23642 7.08456,7.35207 C 6.45828,7.34352 5.82914,7.37021 5.20537,7.3237 C 5.10221,7.32361 4.95911,7.3432 4.828,7.30804 C 4.69696,7.28747 4.42098,7.38745 4.23964,7.32385 C 4.0161,7.31646 3.70269,7.36465 3.44219,7.3486 C 2.72363,7.35329 2.00517,7.35048 1.28666,7.35124 C 1.30522,6.29356 1.32379,5.23586 1.34235,4.17818 L 1.34235,4.17818 z M 4.50329,7.22943 C 4.64822,7.04387 4.13212,7.2077 4.45203,7.24185 L 4.50329,7.22943 L 4.50329,7.22943 z M 4.74232,7.10005 C 4.63897,6.95136 4.55778,7.24169 4.74232,7.10005 L 4.74232,7.10005 z M 4.51253,6.59848 C 4.43417,6.34558 4.33941,6.75211 4.51253,6.59848 z M 4.13428,6.50509 C 4.06486,6.39854 4.07008,6.60805 4.13428,6.50509 z M 4.36024,6.45221 C 4.3124,6.35426 4.25729,6.54155 4.36024,6.45221 z M 4.49261,6.45221 C 4.45423,6.3515 4.4103,6.53593 4.49261,6.45221 z M 4.52822,6.27758 C 4.44249,6.24844 4.45616,6.32668 4.52822,6.27758 z M 4.68973,6.24728 C 4.57206,6.06764 4.55597,6.44696 4.68973,6.24728 z M 4.4698,6.02913 C 4.62801,6.23036 4.82119,5.91361 4.60121,5.82627 C 4.7662,5.7913 4.94129,5.66799 4.67181,5.74723 C 4.52375,5.80175 4.48357,5.89784 4.30302,5.84138 C 4.30183,5.88827 4.34274,6.07911 4.1856,5.95158 C 4.03897,5.80329 4.12375,6.21603 4.31537,6.08675 C 4.36979,6.07495 4.41324,6.03311 4.4698,6.02913 L 4.4698,6.02913 z M 4.37911,5.72068 C 4.31413,5.55387 4.02886,5.83029 4.30824,5.75376 C 4.33198,5.74639 4.36434,5.74487 4.37911,5.72068 z M 4.65814,5.52762 C 4.8123,5.40693 4.36455,5.49612 4.27696,5.46889 C 3.86565,5.47085 4.38774,5.67809 4.65814,5.52762 z M 4.72419,2.57568 C 5.02242,2.42642 5.11201,2.06148 4.9659,1.77802 C 4.86948,1.47362 4.5197,1.39114 4.2413,1.49041 C 3.99669,1.63458 3.7253,1.92964 3.85228,2.23023 C 3.89496,2.56549 4.22743,2.74736 4.54404,2.64908 C 4.60868,2.63863 4.66887,2.61041 4.72419,2.57568 L 4.72419,2.57568 z "
   style="fill:#f9e99e"
   id="path2191" />
    <path
   d="M 1.34235,4.17818 C 1.36091,3.12049 1.37948,2.0628 1.39804,1.00511 C 3.33068,1.00511 5.26331,1.00511 7.19595,1.00511 C 7.15882,3.12092 7.12168,5.23673 7.08455,7.35254 C 6.46707,7.34387 5.84696,7.36863 5.23185,7.32311 C 5.03632,7.38746 4.79213,7.20607 4.57611,7.30612 C 4.3369,7.37822 4.11151,7.27727 3.8562,7.34169 C 2.99956,7.35751 2.14316,7.34911 1.28666,7.35124 C 1.30522,6.29356 1.32379,5.23586 1.34235,4.17818 L 1.34235,4.17818 z M 4.59035,7.20232 C 4.77994,7.18296 4.8456,6.94947 4.60327,7.05827 C 4.52405,7.11791 4.07449,7.17144 4.41636,7.2499 C 4.47251,7.25333 4.55644,7.26011 4.59035,7.20232 z M 5.1301,7.08683 C 5.06069,6.98026 5.0659,7.18977 5.1301,7.08683 z M 3.91553,6.90173 C 3.84611,6.79516 3.85132,7.00468 3.91553,6.90173 z M 4.04054,6.91219 C 3.95481,6.88305 3.96848,6.96129 4.04054,6.91219 z M 4.80466,6.8629 C 4.91066,6.71347 4.33401,6.89093 4.65673,6.90075 C 4.70749,6.89682 4.75948,6.8897 4.80466,6.8629 z M 4.55582,6.62235 C 4.59022,6.41603 4.43265,6.32293 4.24725,6.46011 C 4.20394,6.51869 4.53048,6.74363 4.55582,6.62235 z M 4.76804,6.59764 C 4.8125,6.47663 4.57334,6.66586 4.74061,6.624 L 4.76804,6.59764 z M 4.17162,6.53453 C 4.09825,6.3001 3.97869,6.64305 4.17162,6.53453 z M 4.60822,6.32341 C 4.86075,6.25163 4.56899,6.09133 4.44619,6.21897 C 4.2736,6.19964 4.09551,6.33429 4.36618,6.33458 C 4.4469,6.33373 4.5275,6.32575 4.60822,6.32341 L 4.60822,6.32341 z M 4.66202,6.10092 C 4.80809,6.02717 4.878,5.8516 4.69263,5.84206 C 4.78371,5.7801 5.03277,5.64665 4.76926,5.68966 C 4.64766,5.78968 4.30949,5.7069 4.36096,5.60606 C 4.52101,5.64594 4.66013,5.70941 4.75026,5.54147 C 4.88932,5.46486 4.58138,5.39454 4.54434,5.34279 C 4.3268,5.32209 3.84582,5.52214 4.25548,5.63343 C 4.08746,5.67364 4.15811,5.80458 4.21134,5.86417 C 3.93212,5.83015 4.09855,6.20662 4.32082,6.09863 C 4.43795,6.08102 4.55705,6.17021 4.66202,6.10092 L 4.66202,6.10092 z M 4.52138,4.81279 C 4.43053,4.69334 4.3153,4.92686 4.52138,4.81279 z M 4.66699,4.81279 C 4.55887,4.71603 4.61187,4.87406 4.66699,4.81279 z M 4.60894,2.84147 C 4.68246,2.66371 4.89002,2.82425 4.97799,2.61622 C 5.24405,2.43492 5.28925,2.12646 5.18943,1.8436 C 5.11277,1.60325 5.00734,1.37596 4.77235,1.31176 C 4.48721,1.20365 4.13747,1.30467 3.91288,1.51394 C 3.80472,1.62898 3.68208,1.75705 3.60943,1.8926 C 3.62033,2.20994 3.66754,2.55718 3.92724,2.76931 C 4.10086,2.68079 4.11729,2.97352 4.32866,2.88204 C 4.41857,2.92262 4.53251,2.90806 4.60894,2.84147 L 4.60894,2.84147 z "
   style="fill:#fcd46b"
   id="path2189" />
    <path
   d="M 1.34235,4.17818 C 1.36091,3.12049 1.37948,2.0628 1.39804,1.00511 C 2.74169,1.0109 4.08657,0.99046 5.42905,1.02651 C 5.7021,1.0728 6.01356,0.97399 6.30575,1.00556 C 6.6025,1.00463 6.89922,1.00532 7.19595,1.00511 C 7.15882,3.12092 7.12168,5.23673 7.08455,7.35254 C 6.46707,7.34387 5.84696,7.36863 5.23185,7.32311 C 5.03631,7.38731 4.79219,7.20643 4.57612,7.30583 C 4.33512,7.36145 4.07673,7.29003 3.8178,7.34265 C 2.97397,7.35689 2.13036,7.34931 1.28666,7.35124 C 1.30522,6.29356 1.32379,5.23586 1.34235,4.17818 L 1.34235,4.17818 z M 4.59035,7.20232 C 4.77994,7.18296 4.8456,6.94947 4.60327,7.05827 C 4.52405,7.11791 4.07449,7.17144 4.41636,7.2499 C 4.47251,7.25333 4.55644,7.26011 4.59035,7.20232 z M 5.1301,7.08683 C 5.06069,6.98026 5.0659,7.18977 5.1301,7.08683 z M 3.91553,6.90173 C 3.84611,6.79516 3.85132,7.00468 3.91553,6.90173 z M 4.04054,6.91219 C 3.95481,6.88305 3.96848,6.96129 4.04054,6.91219 z M 4.80466,6.8629 C 4.91066,6.71347 4.33401,6.89093 4.65673,6.90075 C 4.70749,6.89682 4.75948,6.8897 4.80466,6.8629 z M 4.55582,6.62235 C 4.59022,6.41603 4.43265,6.32293 4.24725,6.46011 C 4.20394,6.51869 4.53048,6.74363 4.55582,6.62235 z M 4.76804,6.59764 C 4.8125,6.47663 4.57334,6.66586 4.74061,6.624 L 4.76804,6.59764 z M 4.17162,6.53453 C 4.09825,6.3001 3.97869,6.64305 4.17162,6.53453 z M 4.60822,6.32341 C 4.86362,6.2414 4.56126,6.1005 4.43659,6.21657 C 4.18339,6.17706 4.14724,6.37123 4.41528,6.33359 C 4.47956,6.32959 4.54389,6.32609 4.60822,6.32341 z M 4.66202,6.10092 C 4.80809,6.02717 4.878,5.8516 4.69263,5.84206 C 4.78371,5.7801 5.03277,5.64665 4.76926,5.68966 C 4.64766,5.78968 4.30949,5.7069 4.36096,5.60606 C 4.52101,5.64594 4.66013,5.70941 4.75026,5.54147 C 4.88932,5.46486 4.58138,5.39454 4.54434,5.34279 C 4.3268,5.32209 3.84582,5.52214 4.25548,5.63343 C 4.08746,5.67364 4.15811,5.80458 4.21134,5.86417 C 3.93212,5.83015 4.09855,6.20662 4.32082,6.09863 C 4.43795,6.08102 4.55705,6.17021 4.66202,6.10092 L 4.66202,6.10092 z M 4.15702,5.20943 C 4.06081,5.10869 4.09323,5.29744 4.15702,5.20943 z M 4.5334,5.12117 C 4.50437,4.91207 4.4665,5.07417 4.40011,5.1168 C 4.33993,4.93073 4.01457,5.0645 4.29985,5.13526 C 4.37278,5.15359 4.47519,5.19432 4.5334,5.12117 L 4.5334,5.12117 z M 4.66212,5.09043 C 4.54413,4.94247 4.5964,5.22574 4.66212,5.09043 z M 4.34915,4.8528 C 4.45413,4.70812 4.07088,4.85474 4.2695,4.86538 L 4.31517,4.84989 L 4.34915,4.8528 L 4.34915,4.8528 z M 4.52138,4.81279 C 4.43053,4.69334 4.3153,4.92686 4.52138,4.81279 z M 4.74644,4.81196 C 4.60706,4.64609 4.51568,4.9169 4.74644,4.81196 z M 4.64829,2.98109 C 4.73552,2.6346 4.72292,3.27126 4.92592,3.0161 C 5.17648,2.82491 5.40401,2.57847 5.50018,2.27786 C 5.49137,1.89891 5.3868,1.50444 5.07634,1.26298 C 4.96596,1.20388 4.87074,1.07245 4.74015,1.06736 C 4.48091,1.07066 4.20681,1.05685 3.9841,1.22184 C 3.71524,1.36233 3.49978,1.60759 3.36462,1.86981 C 3.38004,2.14697 3.36616,2.44126 3.53441,2.67686 C 3.58753,2.90961 3.97855,3.24234 4.05725,2.88593 C 4.11968,3.02317 4.43182,2.85634 4.53172,3.06886 C 4.59957,3.11872 4.64545,3.04289 4.64829,2.98109 z "
   style="fill:#efb58b"
   id="path2187" />
    <path
   d="M 1.34235,4.17818 C 1.36091,3.12049 1.37948,2.0628 1.39804,1.00511 C 2.74169,1.0109 4.08657,0.99046 5.42905,1.02651 C 5.7021,1.0728 6.01356,0.97399 6.30575,1.00556 C 6.6025,1.00463 6.89922,1.00532 7.19595,1.00511 C 7.15883,3.12049 7.1217,5.23586 7.08457,7.35124 C 6.55843,7.34661 6.03113,7.36397 5.50611,7.3343 C 5.39102,7.32013 5.24762,7.3495 5.11631,7.28291 C 5.10196,7.44889 4.86567,7.22029 4.7729,7.22627 C 4.90391,7.05064 4.65578,6.91952 4.54831,7.04999 C 4.46644,7.09436 4.12119,7.20198 4.29741,7.00385 C 4.19909,6.9375 4.02404,7.07434 4.10035,6.88715 C 3.97894,6.75684 3.59136,6.98448 3.82693,7.02229 C 4.1153,6.80176 4.19252,7.3324 4.47943,7.29836 C 4.64736,7.39013 4.20555,7.29882 4.14949,7.27075 C 3.90874,7.42178 3.5619,7.30702 3.28188,7.34952 C 2.61676,7.35268 1.95173,7.35068 1.28666,7.35124 C 1.30522,6.29356 1.32379,5.23586 1.34235,4.17818 L 1.34235,4.17818 z M 3.92459,7.1397 C 3.82227,7.04431 3.87243,7.23584 3.92459,7.1397 z M 5.15588,7.11396 C 5.19699,6.89747 4.91125,7.20639 5.15588,7.11396 z M 4.80178,6.90274 C 4.92826,6.89454 5.12181,6.79828 4.86886,6.78395 C 4.68593,6.69802 4.38918,6.98753 4.33343,6.74757 C 4.53536,6.6521 4.85747,6.70326 4.86917,6.45982 C 5.0206,6.39683 4.36926,6.44687 4.64679,6.34151 C 4.85389,6.32358 4.5866,6.01654 4.87082,6.09458 C 5.12018,6.06832 4.66023,5.80674 4.94204,5.69271 C 4.90458,5.60722 4.56304,5.69111 4.78584,5.56646 C 4.94572,5.5126 5.10501,5.47948 4.85101,5.39003 C 4.72146,5.3108 4.43055,5.27966 4.1894,5.38944 C 4.05604,5.45705 3.76765,5.61352 4.10378,5.59591 C 4.34039,5.59791 3.92349,5.70581 4.08152,5.82078 C 3.8444,6.0762 4.33077,6.11968 4.35861,6.18425 C 4.26874,6.17841 3.79958,6.25001 4.09596,6.30394 C 4.37502,6.33624 4.17631,6.49385 4.00461,6.43544 C 3.72284,6.47342 4.21419,6.61224 4.3021,6.58414 C 4.51395,6.72066 3.87262,6.58117 4.179,6.73483 C 4.41275,6.68483 4.0621,6.9628 4.32446,6.89154 C 4.47744,6.92832 4.64724,6.93678 4.80178,6.90274 L 4.80178,6.90274 z M 4.57329,6.5426 C 4.53681,6.41124 4.94851,6.5133 4.63323,6.57198 L 4.60034,6.58442 L 4.57329,6.5426 L 4.57329,6.5426 L 4.57329,6.5426 z M 5.08186,6.22139 C 4.98626,6.21047 5.12158,6.35697 5.08186,6.22139 z M 3.9176,6.02913 C 3.78271,5.92771 3.8598,6.12187 3.9176,6.02913 z M 4.01309,5.86765 C 3.89072,5.76671 3.88952,6.01372 4.01309,5.86765 z M 4.01629,5.68539 C 3.92068,5.57898 3.91291,5.78883 4.01629,5.68539 z M 5.06204,5.68539 C 5.01419,5.58744 4.95909,5.77472 5.06204,5.68539 z M 4.15702,5.20943 C 4.06081,5.10869 4.09323,5.29744 4.15702,5.20943 z M 4.62802,5.1481 C 4.74637,5.0217 4.48157,5.06464 4.45834,5.01632 C 4.47604,5.27196 4.25119,4.86489 4.16436,5.06982 C 4.26521,5.18027 4.48933,5.19488 4.62802,5.1481 z M 4.78103,5.10365 C 4.6998,4.99207 4.65334,5.19348 4.78103,5.10365 z M 4.49784,4.85289 C 4.67026,4.8991 4.85161,4.75012 4.57947,4.7635 C 4.48174,4.72517 4.09552,4.80553 4.27328,4.87021 C 4.34766,4.85876 4.42286,4.85523 4.49784,4.85289 z M 4.64829,2.98109 C 4.73552,2.6346 4.72292,3.27126 4.92592,3.0161 C 5.17648,2.82491 5.40401,2.57847 5.50018,2.27786 C 5.49137,1.89891 5.3868,1.50444 5.07634,1.26298 C 4.96596,1.20388 4.87074,1.07246 4.74015,1.06736 C 4.48091,1.07066 4.20681,1.05685 3.9841,1.22184 C 3.71524,1.36233 3.49978,1.60759 3.36462,1.86981 C 3.38004,2.14697 3.36616,2.44126 3.53441,2.67686 C 3.58753,2.90961 3.97855,3.24234 4.05725,2.88593 C 4.11968,3.02317 4.43182,2.85634 4.53172,3.06886 C 4.59957,3.11872 4.64545,3.04289 4.64829,2.98109 L 4.64829,2.98109 z M 4.638,7.21904 C 4.7195,7.13078 4.64364,7.31118 4.638,7.21904 z "
   style="fill:#f4a256"
   id="path2185" />
    <path
   d="M 1.34235,4.17818 C 1.36091,3.12049 1.37948,2.0628 1.39804,1.00511 C 2.18785,1.00559 2.97767,1.00606 3.76748,1.00654 C 3.50374,1.21458 3.2832,1.47447 3.10391,1.75333 C 3.02729,2.09609 3.18923,2.44575 3.31909,2.7518 C 3.37529,3.14931 3.77495,3.20407 4.07495,3.02753 C 4.27985,2.84778 4.4525,3.05495 4.60787,3.1296 C 4.70478,3.02523 4.68308,2.96531 4.7893,3.10211 C 5.15477,3.25847 5.39929,2.86213 5.60545,2.62941 C 5.92438,2.36193 5.72124,1.94271 5.65365,1.61393 C 5.56799,1.41493 5.27338,1.07692 5.69907,1.07228 C 5.95683,0.95402 6.26406,1.02706 6.54395,1.00438 C 6.76365,1.06862 7.27742,0.84231 7.19247,1.20343 C 7.1565,3.2527 7.12054,5.30197 7.08457,7.35124 C 6.46236,7.34851 5.8354,7.3649 5.21754,7.31918 C 5.11354,7.20401 5.0006,7.43582 4.86023,7.25513 C 4.67969,7.17094 5.00777,7.11735 4.80294,6.99816 C 4.7855,6.85482 5.21099,6.82064 4.90157,6.74875 C 4.74922,6.68467 4.4024,6.94205 4.38837,6.73997 C 4.61605,6.68411 4.91951,6.69873 4.92009,6.43469 C 4.72809,6.43238 4.66363,6.329 4.84571,6.25314 C 4.54799,6.02881 5.16186,6.19031 4.95268,5.92743 C 4.75133,5.71344 5.30775,5.71146 4.96108,5.58345 C 4.91138,5.50573 5.13994,5.50091 4.95649,5.39988 C 4.72502,5.20038 4.41018,5.33532 4.14071,5.36396 C 3.91707,5.29849 3.68818,5.50815 3.92435,5.67534 C 3.9164,5.8245 3.96515,6.00886 3.83396,6.02321 C 3.8824,6.16726 4.2813,6.04234 4.21956,6.18554 C 4.06491,6.11878 3.72745,6.31836 4.05357,6.31691 C 4.3726,6.37349 3.95892,6.41532 3.8949,6.45933 C 3.99217,6.55911 4.2369,6.64306 3.94196,6.6655 C 3.80335,6.74791 4.38737,6.71461 4.11474,6.84306 C 3.9789,6.73584 3.56598,7.0267 3.83016,6.99661 C 4.18855,6.83917 4.26126,7.48133 3.84086,7.34106 C 2.98929,7.3618 2.13808,7.34668 1.28666,7.35124 C 1.30522,6.29356 1.32379,5.23586 1.34235,4.17818 L 1.34235,4.17818 z M 3.93757,7.15448 C 3.85749,6.95514 3.80371,7.30301 3.93757,7.15448 z M 5.17111,7.10194 C 5.25285,6.92653 4.89038,7.19547 5.1535,7.1121 L 5.16851,7.10343 L 5.17111,7.10194 L 5.17111,7.10194 z M 5.56832,7.00749 C 5.55669,6.90062 5.49221,7.11124 5.56832,7.00749 z M 3.82855,6.58423 C 3.76846,6.41079 3.69165,6.68831 3.82855,6.58423 z M 5.19337,6.24067 C 5.21152,6.0546 4.84224,6.3645 5.1317,6.26988 L 5.16055,6.25126 L 5.19337,6.24067 L 5.19337,6.24067 z M 4.23521,5.24937 C 4.38531,5.19952 4.89514,5.26748 4.74711,5.02826 C 4.62901,4.96554 4.07562,4.99521 4.41213,4.8944 C 4.53992,4.92475 4.99698,4.82904 4.67422,4.73416 C 4.46537,4.65874 4.00892,4.78182 4.00083,4.9002 C 4.31464,4.90782 3.93122,5.17169 3.92521,5.20542 C 4.01704,5.23343 4.14537,5.32941 4.23521,5.24937 L 4.23521,5.24937 z M 4.2694,7.31158 C 4.35728,7.16635 4.46431,7.47145 4.2694,7.31158 z M 4.49053,7.3248 C 4.4428,7.21675 4.65652,7.42252 4.49053,7.3248 z M 4.25628,7.09635 C 4.35523,7.00393 4.25508,6.83317 4.47716,6.91947 C 4.74553,6.92476 4.32138,7.1303 4.25628,7.09635 z M 4.13254,6.94967 C 4.19411,6.82639 4.21476,7.0144 4.13254,6.94967 z M 4.22509,6.61087 C 4.26992,6.50243 4.44199,6.7347 4.22509,6.61087 z M 4.59712,6.53153 C 4.63607,6.43411 4.66794,6.61579 4.59712,6.53153 z M 4.77221,5.60606 C 4.92955,5.48498 4.84685,5.72363 4.77221,5.60606 z M 3.90087,5.47385 C 3.98042,5.35318 4.02868,5.57569 3.90087,5.47385 z M 5.34227,1.03156 C 5.43186,0.9127 5.36061,1.13595 5.34227,1.03156 z "
   style="fill:#fa8b35"
   id="path2183" />
    <path
   d="M 1.34235,4.17818 C 1.36091,3.12049 1.37948,2.0628 1.39804,1.00511 C 2.0599,1.01064 2.72307,0.99087 3.38377,1.02194 C 3.361,1.17543 3.05382,1.41106 2.92112,1.58684 C 2.83949,1.65193 2.75123,1.715 2.81676,1.82482 C 2.88503,2.13875 2.76142,2.49599 2.96076,2.77356 C 3.01356,2.94139 3.09175,3.34374 3.32031,3.12164 C 3.53729,3.30077 3.78225,3.11243 4.01962,3.09483 C 4.31921,2.80339 4.54079,3.25727 4.86628,3.15414 C 5.16135,3.1291 5.52651,3.31174 5.74852,3.01769 C 5.85294,2.83246 5.95125,2.64163 6.09205,2.47835 C 6.03752,2.0262 6.00573,1.53787 5.69971,1.17781 C 5.80105,0.87397 6.20888,1.04537 6.46125,1.0131 C 6.64105,1.15098 6.80883,0.92525 6.99958,1.058 C 7.08452,0.98733 7.25188,0.96678 7.19354,1.14257 C 7.15722,3.21213 7.12089,5.28169 7.08457,7.35124 C 6.55814,7.34613 6.03036,7.36495 5.50518,7.33407 C 5.39842,7.30614 5.24148,7.38772 5.12265,7.25443 C 5.09055,7.43686 4.84981,7.26173 4.78415,7.18798 C 4.83952,7.11545 4.94451,7.16704 4.81979,7.02935 C 4.68954,6.85254 5.23773,6.84806 4.93973,6.76495 C 4.74169,6.65439 4.44962,6.94946 4.36059,6.75689 C 4.48703,6.65627 4.98212,6.73122 4.8513,6.52784 C 5.13017,6.32839 4.51019,6.49088 4.79385,6.28436 C 4.9924,6.28122 4.55819,6.09136 4.87266,6.10886 C 5.20539,6.09969 4.70104,5.76296 5.02945,5.72269 C 5.26665,5.66028 4.72751,5.55863 5.03669,5.51508 C 5.02976,5.41548 4.81321,5.28949 4.69097,5.28848 C 4.47984,5.30477 4.26911,5.33754 4.06331,5.37912 C 3.87576,5.28778 3.6977,5.5322 3.90029,5.62261 C 3.98902,5.76587 3.86401,5.88765 3.93598,5.99404 C 3.70525,5.93905 3.9136,6.17828 4.0359,6.08442 C 4.13165,6.09657 4.41398,6.19462 4.14215,6.18738 C 3.94461,6.15033 3.75078,6.33106 4.05357,6.31691 C 4.3566,6.35413 4.07347,6.44318 3.9191,6.42066 C 3.77572,6.52677 4.32929,6.60982 3.99737,6.64902 C 3.6315,6.74569 4.43996,6.69467 4.11474,6.84306 C 3.99195,6.78995 3.58024,6.92506 3.78913,7.03258 C 4.00034,6.79784 4.3501,7.27283 4.01113,7.33642 C 3.10302,7.3639 2.19479,7.34638 1.28666,7.35124 C 1.30522,6.29356 1.32379,5.23586 1.34235,4.17818 L 1.34235,4.17818 z M 3.93757,7.15448 C 3.8385,6.95256 3.80065,7.30583 3.93757,7.15448 z M 5.17111,7.10194 C 5.28953,6.94878 4.89073,7.12818 5.12347,7.12945 L 5.17111,7.10194 L 5.17111,7.10194 z M 5.56832,7.00749 C 5.56903,6.9011 5.4711,7.10658 5.56832,7.00749 z M 3.82855,6.58423 C 3.74978,6.40845 3.68811,6.68739 3.82855,6.58423 z M 5.19337,6.24067 C 5.3034,6.13602 4.86727,6.19846 5.07398,6.30788 C 5.11645,6.29003 5.14564,6.24682 5.19337,6.24067 z M 4.23574,5.24971 C 4.4064,5.19389 4.79134,5.28289 4.80789,5.06042 C 4.70188,4.91016 4.34298,5.01986 4.31882,4.92939 C 4.44217,4.87403 4.932,4.87764 4.8642,4.77779 C 4.62337,4.63312 4.30641,4.72294 4.05234,4.80938 C 3.87517,4.92823 4.04204,4.91018 4.13065,4.94724 C 4.00421,5.0273 4.01502,5.05243 4.03804,5.14942 C 3.67592,5.10745 4.16042,5.36661 4.23574,5.24971 z M 4.26996,7.3131 C 4.29358,7.20495 4.50857,7.37597 4.292,7.33785 L 4.26996,7.3131 L 4.26996,7.3131 z M 4.50377,7.3248 C 4.51357,7.23132 4.61915,7.41926 4.50377,7.3248 z M 4.25628,7.09635 C 4.40828,7.02852 4.18621,6.85144 4.41336,6.92287 C 4.80625,6.88792 4.33034,7.13347 4.25628,7.09635 z M 4.13254,6.94967 C 4.21928,6.82469 4.20516,7.0194 4.13254,6.94967 z M 4.22509,6.61087 C 4.2607,6.52003 4.41689,6.67783 4.25186,6.62953 L 4.22509,6.61087 z M 4.59712,6.53153 C 4.63904,6.43083 4.67649,6.61526 4.59712,6.53153 z M 4.77221,5.60606 C 4.94403,5.49558 4.83083,5.72275 4.77221,5.60606 z M 3.90087,5.47385 C 3.98601,5.36226 4.02541,5.56367 3.90087,5.47385 z "
   style="fill:#d77349"
   id="path2181" />
    <path
   d="M 1.34234,4.17849 C 1.36091,3.12069 1.37947,2.06291 1.39804,1.00511 C 1.96826,1.01355 2.54189,0.98357 3.10929,1.02935 C 3.12493,1.04596 3.48747,0.95522 3.41305,1.05573 C 3.19583,1.26437 3.02242,1.51297 2.79006,1.70584 C 2.88659,2.0075 2.78747,2.34086 2.89011,2.63721 C 3.02317,2.84495 3.03509,3.34605 3.36273,3.13212 C 3.56018,3.30887 3.79781,3.09417 4.01962,3.09483 C 4.31921,2.80339 4.54079,3.25727 4.86628,3.15414 C 5.16135,3.1291 5.52651,3.31174 5.74852,3.01769 C 5.85295,2.83246 5.95125,2.64163 6.09205,2.47835 C 6.03752,2.0262 6.00573,1.53787 5.69971,1.17781 C 5.80105,0.87397 6.20888,1.04537 6.46125,1.0131 C 6.64105,1.15098 6.80883,0.92525 6.99958,1.058 C 7.08452,0.98733 7.25189,0.96678 7.19354,1.14258 C 7.15722,3.21214 7.12089,5.28169 7.08457,7.35124 C 6.5687,7.34276 6.04847,7.37327 5.53628,7.3248 C 5.47787,7.29042 5.24421,7.41579 5.14385,7.2419 C 5.02786,7.20308 5.1156,7.45891 5.00324,7.31185 C 4.96925,7.2133 4.69991,7.25384 4.91499,7.13412 C 4.73428,6.92135 5.06561,6.94064 5.08273,6.78289 C 4.98427,6.67898 4.83557,6.5326 4.99113,6.44205 C 4.92031,6.34602 4.64132,6.37802 4.90918,6.29527 C 5.08062,6.41868 5.43245,6.21695 5.13559,6.08014 C 4.92368,5.95629 4.98634,5.67722 5.24228,5.6599 C 5.27087,5.57385 4.9346,5.6449 5.11524,5.4541 C 5.00531,5.38547 4.76876,5.27664 4.65022,5.22264 C 4.76635,5.22177 5.02384,5.05778 4.78024,4.99863 C 4.63591,4.98006 4.26892,4.89425 4.63816,4.90112 C 4.9059,4.97095 5.0323,4.77075 4.73047,4.70194 C 4.49537,4.66187 4.15524,4.69917 3.96496,4.83924 C 3.69204,4.97004 4.34032,4.94977 4.01007,4.98872 C 3.86578,5.07234 3.68225,5.22751 3.91536,5.28887 C 3.82797,5.41582 3.5158,5.59308 3.84937,5.61154 C 3.95848,5.72955 3.48608,5.67472 3.77223,5.75388 C 3.92885,5.8602 3.7132,6.04401 3.83047,6.18936 C 3.69634,6.1974 3.62873,6.3091 3.80648,6.28813 C 4.01473,6.41194 3.56422,6.53948 3.78684,6.69151 C 3.82504,6.77628 4.34884,6.74524 4.03874,6.82617 C 3.84035,6.68828 3.46334,7.02742 3.7777,7.08599 C 3.52999,7.23045 4.31861,7.28136 3.9825,7.33651 C 3.08378,7.35732 2.18524,7.34847 1.28665,7.35185 C 1.30521,6.29407 1.32378,5.23627 1.34234,4.17849 L 1.34234,4.17849 z M 3.45417,7.16764 C 3.67031,6.85377 3.13411,7.35015 3.45417,7.16764 z M 5.24296,7.10265 C 5.43675,7.03785 5.31179,7.02727 5.17938,7.02336 C 4.88948,7.03164 5.05378,7.26796 5.24296,7.10265 z M 5.5948,7.00713 C 5.50485,6.87366 5.48642,7.1727 5.5948,7.00713 z M 5.30035,6.5507 C 5.25994,6.18636 5.14118,6.64986 5.30035,6.5507 z M 3.72367,6.40812 C 3.71499,6.16078 3.60913,6.56795 3.72367,6.40812 z M 3.61446,5.95422 C 3.55461,5.80189 3.5063,6.0443 3.61446,5.95422 z M 4.2789,7.31525 C 4.43005,7.20938 4.36851,7.42036 4.2789,7.31525 L 4.2789,7.31525 z M 4.50377,7.3248 C 4.51357,7.23132 4.61915,7.41926 4.50377,7.3248 z M 4.04284,7.1896 C 3.84659,7.13207 3.90367,6.86 4.06054,7.09214 C 4.14074,7.1026 4.14206,7.28118 4.04284,7.1896 z M 4.40716,6.79596 C 4.40895,6.58236 4.55535,6.90464 4.40716,6.79596 z M 4.76215,6.69873 C 4.93434,6.58186 4.96805,6.85079 4.76215,6.69873 z M 3.87371,6.64392 C 3.79913,6.49406 4.1703,6.58905 3.91416,6.64293 L 3.87371,6.64392 L 3.87371,6.64392 z M 3.96451,6.37288 C 4.0158,6.27493 4.06433,6.46222 3.96451,6.37288 z M 4.90871,6.20265 C 4.90664,6.00775 5.26751,6.14234 4.9836,6.22481 C 4.95789,6.25263 4.91996,6.22865 4.90871,6.20265 z M 3.94176,6.16135 C 4.16944,6.0534 4.0556,6.26502 3.94176,6.16135 z M 3.95734,5.28832 C 4.07985,5.22877 3.99328,5.38886 3.95734,5.28832 z M 4.44732,5.26231 C 4.54271,5.17076 4.56784,5.36289 4.44732,5.26231 z "
   style="fill:#ee712c"
   id="path2179" />
    <path
   d="M 1.34234,4.17849 C 1.36091,3.12069 1.37947,2.06291 1.39804,1.00511 C 1.96323,1.00511 2.52843,1.00511 3.09363,1.00511 C 2.94017,1.25367 2.67997,1.42599 2.50224,1.64717 C 2.44361,2.03711 2.43867,2.43584 2.52448,2.81887 C 2.44854,3.16366 2.88239,3.25668 3.13723,3.25834 C 3.29619,3.19951 3.31987,3.08999 3.43718,3.24413 C 3.65393,3.21812 3.87188,3.15348 4.11326,3.14169 C 4.42889,3.05576 4.7454,3.24422 5.07447,3.19489 C 5.37661,3.19171 5.67817,3.21528 5.96014,3.30528 C 6.28621,3.20859 6.25168,2.79084 6.44098,2.56449 C 6.42169,2.26383 6.43019,1.94107 6.30892,1.65959 C 6.24421,1.43844 6.05012,1.18801 6.02031,1.01257 C 6.25751,0.95282 6.47549,1.05815 6.66554,1.11825 C 6.78403,0.88148 7.0755,1.17359 7.19256,1.19814 C 7.15657,3.24917 7.12057,5.3002 7.08457,7.35124 C 6.5687,7.34276 6.04847,7.37327 5.53628,7.3248 C 5.47176,7.29736 5.24049,7.40438 5.12733,7.24173 C 5.03309,7.25025 5.07379,7.42742 4.99732,7.27678 C 4.88192,7.24011 4.74617,7.22867 4.91499,7.13412 C 4.73428,6.92135 5.06561,6.94064 5.08273,6.78289 C 4.98427,6.67898 4.83557,6.5326 4.99113,6.44205 C 4.92031,6.34602 4.64132,6.37802 4.90918,6.29527 C 5.08062,6.41868 5.43245,6.21695 5.13559,6.08014 C 4.92368,5.95629 4.98634,5.67722 5.24228,5.6599 C 5.27087,5.57385 4.9346,5.6449 5.11524,5.4541 C 5.02278,5.39281 4.74953,5.28702 4.69917,5.20152 C 4.91189,5.21012 4.93513,4.96849 4.72304,4.9636 C 4.65944,4.84165 5.10621,4.93233 4.89353,4.74371 C 4.64119,4.59752 4.33334,4.72086 4.05529,4.75889 C 3.78788,4.78759 4.03303,5.1011 3.78212,5.1799 C 3.79445,5.25658 4.0168,5.26581 3.82684,5.3742 C 3.78276,5.47521 3.55342,5.58704 3.8052,5.58883 C 4.06066,5.70794 3.46175,5.67961 3.77223,5.75388 C 3.92885,5.8602 3.7132,6.04401 3.83047,6.18936 C 3.69634,6.1974 3.62873,6.3091 3.80648,6.28813 C 4.01473,6.41194 3.56422,6.53948 3.78684,6.69151 C 3.82504,6.77628 4.34884,6.74524 4.03874,6.82617 C 3.84035,6.68828 3.46334,7.02742 3.7777,7.08599 C 3.52999,7.23045 4.31861,7.28136 3.9825,7.33651 C 3.08378,7.35732 2.18524,7.34847 1.28665,7.35185 C 1.30521,6.29407 1.32378,5.23627 1.34234,4.17849 L 1.34234,4.17849 z M 3.45417,7.16764 C 3.67031,6.85377 3.13411,7.35015 3.45417,7.16764 z M 5.24296,7.10265 C 5.43675,7.03785 5.31179,7.02727 5.17938,7.02336 C 4.88948,7.03164 5.05378,7.26796 5.24296,7.10265 z M 5.5948,7.00713 C 5.50485,6.87366 5.48642,7.1727 5.5948,7.00713 z M 5.30035,6.5507 C 5.25994,6.18636 5.14118,6.64986 5.30035,6.5507 z M 3.72367,6.40812 C 3.71499,6.16078 3.60913,6.56795 3.72367,6.40812 z M 3.61446,5.95422 C 3.55461,5.80189 3.5063,6.0443 3.61446,5.95422 z M 6.39955,1.12846 C 6.31216,0.88191 6.14112,1.30883 6.38399,1.16415 L 6.39955,1.12846 L 6.39955,1.12846 z M 4.29891,7.30729 C 4.43501,7.28391 4.31981,7.35069 4.29891,7.30729 z M 4.04284,7.1896 C 3.84659,7.13207 3.90367,6.86 4.06054,7.09214 C 4.14074,7.1026 4.14206,7.28118 4.04284,7.1896 z M 4.40716,6.79596 C 4.40895,6.58236 4.55535,6.90464 4.40716,6.79596 z M 4.76215,6.69873 C 4.93434,6.58186 4.96805,6.85079 4.76215,6.69873 z M 3.87371,6.64392 C 3.79913,6.49406 4.1703,6.58905 3.91416,6.64293 L 3.87371,6.64392 L 3.87371,6.64392 z M 3.96451,6.37288 C 4.0158,6.27493 4.06433,6.46222 3.96451,6.37288 z M 4.90871,6.20265 C 4.90664,6.00775 5.26751,6.14234 4.9836,6.22481 C 4.95789,6.25263 4.91996,6.22865 4.90871,6.20265 z M 3.955,6.16135 C 4.10851,6.05809 4.07912,6.25563 3.955,6.16135 z M 3.95734,5.28832 C 4.07985,5.22877 3.99328,5.38886 3.95734,5.28832 z "
   style="fill:#cc5627"
   id="path2177" />
    <path
   d="M 1.34234,4.17861 C 1.36091,3.12077 1.37947,2.06295 1.39804,1.00511 C 1.78266,1.01012 2.16885,0.99263 2.55216,1.01861 C 2.58892,1.23711 2.10475,1.36393 2.04476,1.62636 C 2.12082,1.86548 2.07034,2.0693 2.1797,2.31758 C 2.16624,2.44171 2.37137,2.3553 2.34865,2.54387 C 2.46242,2.82277 2.51932,3.17977 2.87971,3.22601 C 3.1102,3.37093 3.30276,3.0827 3.46441,3.23273 C 3.70837,3.24246 3.92057,3.12765 4.18603,3.12319 C 4.50649,3.13493 4.84489,3.19537 5.1731,3.2084 C 5.45288,3.21401 5.73286,3.23497 6.00355,3.29692 C 6.26912,3.1625 6.24829,2.79846 6.48104,2.67062 C 6.60747,2.44173 6.69948,2.16287 6.7073,1.88782 C 6.72704,1.76705 6.92209,1.6833 6.72267,1.60743 C 6.6747,1.44378 6.61582,1.02602 6.94134,1.14147 C 7.05655,1.26087 7.26139,1.11225 7.19001,1.34386 C 7.15486,3.34632 7.11972,5.34879 7.08457,7.35124 C 6.57147,7.3449 6.05592,7.36727 5.54506,7.32808 C 5.50902,7.20988 5.24336,7.45983 5.19135,7.2504 C 5.0324,7.23011 4.84102,7.27549 4.92513,7.06074 C 4.84118,6.92914 5.21072,6.75801 5.25202,6.92817 C 5.37115,6.80996 4.96784,6.7907 5.09452,6.6439 C 4.90983,6.62255 4.93189,6.50796 5.04673,6.45516 C 4.84169,6.31812 5.58151,6.27057 5.22669,6.13653 C 5.10927,6.01565 4.8756,5.73877 5.1973,5.71871 C 5.39238,5.55698 5.01311,5.60984 5.14452,5.40206 C 4.87687,5.42839 5.07482,5.15254 5.08139,5.0701 C 4.83101,4.96462 5.14341,4.75634 4.87744,4.66699 C 4.59767,4.58669 4.30183,4.72363 4.01738,4.74522 C 3.70828,4.72659 3.85244,5.1811 3.60013,5.26231 C 3.65761,5.28765 3.94801,5.20342 3.78667,5.38956 C 3.60187,5.45579 3.58861,5.64747 3.81571,5.63145 C 3.69582,5.63294 3.50245,5.77858 3.75264,5.77127 C 3.87635,5.92467 3.72249,5.94333 3.60065,5.89939 C 3.41487,5.97287 3.78524,5.96353 3.63142,6.11329 C 3.78628,6.02181 3.89926,6.19844 3.69722,6.22255 C 3.60514,6.33272 3.64198,6.5414 3.78576,6.4378 C 3.75941,6.52464 3.61883,6.57629 3.76604,6.67415 C 3.82195,6.86229 3.53886,6.84507 3.59837,7.05624 C 3.48345,7.10064 3.13531,7.10242 3.38994,7.21525 C 3.52308,7.1807 3.76112,6.99772 3.69843,7.18815 C 3.86036,7.20023 4.27282,7.37628 3.87302,7.33816 C 3.01079,7.35623 2.14875,7.34864 1.28664,7.3521 C 1.30521,6.29427 1.32378,5.23644 1.34234,4.17861 L 1.34234,4.17861 z M 5.35142,7.29836 C 5.31304,7.19765 5.2691,7.38209 5.35142,7.29836 z M 5.18898,7.14257 C 5.3642,7.10233 5.4662,6.99579 5.2086,7.01926 C 5.01617,6.92647 4.90291,7.26872 5.1422,7.16269 L 5.18898,7.14257 L 5.18898,7.14257 z M 5.60317,7.00058 C 5.49265,6.81519 5.42409,7.20719 5.60317,7.00058 z M 5.33376,6.79596 C 5.33447,6.68956 5.23655,6.89504 5.33376,6.79596 z M 3.64237,6.68843 C 3.65947,6.5711 3.47011,6.79794 3.64237,6.68843 z M 5.32537,6.51987 C 5.34891,6.25493 4.96727,6.57294 5.26149,6.60147 C 5.31343,6.63134 5.33379,6.55051 5.32537,6.51987 z M 3.56623,5.68539 C 3.47062,5.57898 3.46285,5.78883 3.56623,5.68539 z M 5.00679,7.3248 C 5.0487,7.22409 5.08616,7.40853 5.00679,7.3248 z M 4.29891,7.30729 C 4.43501,7.28391 4.31981,7.35069 4.29891,7.30729 z M 3.95601,7.09135 C 3.8205,6.8635 4.15502,7.23931 3.95601,7.09135 L 3.95601,7.09135 z M 4.08947,6.79596 C 4.09248,6.68956 4.18321,6.89504 4.08947,6.79596 z M 3.88459,6.77844 C 4.0207,6.75507 3.9055,6.82184 3.88459,6.77844 z M 3.88092,6.61087 C 3.99759,6.51303 3.89294,6.70032 3.88092,6.61087 z M 4.93426,6.17765 C 5.1179,5.97 5.00155,6.31458 4.93426,6.17765 z M 4.89,5.23518 C 4.91062,4.95389 5.03041,5.35453 4.89,5.23518 L 4.89,5.23518 z "
   style="fill:#cd4d14"
   id="path2175" />
    <path
   d="M 1.34234,4.1787 C 1.36091,3.12083 1.37947,2.06298 1.39804,1.00511 C 1.78266,1.01012 2.16885,0.99263 2.55216,1.01861 C 2.58806,1.23425 2.11365,1.36415 2.04504,1.61949 C 1.9982,1.9114 1.96787,2.21838 1.87729,2.50436 C 1.89689,2.74471 1.70011,3.24152 2.1119,3.17873 C 2.40471,3.16569 2.70441,3.17383 2.97571,3.29002 C 3.25808,3.25821 3.5252,3.2547 3.80632,3.2581 C 3.91588,3.3624 4.01701,3.42522 4.15904,3.33207 C 4.44114,3.39775 4.70843,3.30033 4.98434,3.23231 C 5.27073,3.29 5.58733,3.16905 5.85158,3.33312 C 6.17615,3.32352 6.49188,3.23967 6.82169,3.28749 C 6.92738,3.23677 6.93848,3.03504 6.99094,2.94024 C 6.91215,2.85148 7.11868,2.59031 6.96803,2.4278 C 6.96738,2.15621 6.80231,1.90425 6.83414,1.64068 C 6.67668,1.51025 6.56602,1.08286 6.90996,1.12209 C 6.98253,1.28824 7.25858,1.09437 7.19053,1.31381 C 7.15521,3.3263 7.11989,5.33877 7.08457,7.35124 C 6.57147,7.3449 6.05592,7.36727 5.54506,7.32808 C 5.50902,7.20988 5.24336,7.45983 5.19135,7.2504 C 5.0324,7.23011 4.84102,7.27549 4.92513,7.06074 C 4.84118,6.92914 5.21072,6.75801 5.25202,6.92817 C 5.37115,6.80996 4.96784,6.7907 5.09452,6.6439 C 4.90983,6.62255 4.93189,6.50796 5.04673,6.45516 C 4.84169,6.31812 5.58151,6.27057 5.22669,6.13653 C 5.10927,6.01565 4.8756,5.73877 5.1973,5.71871 C 5.39238,5.55698 5.01311,5.60984 5.14452,5.40206 C 4.7837,5.39049 5.28182,5.03847 4.96456,4.93294 C 5.13221,4.6023 4.58187,4.61074 4.36803,4.68484 C 4.09703,4.73163 3.74447,4.70715 3.768,5.07833 C 3.6735,5.21197 3.51772,5.32339 3.7655,5.25484 C 4.02319,5.32662 3.40065,5.55814 3.72647,5.60606 C 4.00564,5.62813 3.42694,5.70142 3.6937,5.76471 C 3.87768,5.76652 3.78292,6.02289 3.63899,5.89588 C 3.36975,5.94436 3.7801,5.95736 3.62413,6.09166 C 3.66124,6.10081 3.9185,6.09104 3.77245,6.18778 C 3.59977,6.20435 3.60832,6.57398 3.78576,6.4378 C 3.75941,6.52464 3.61883,6.57629 3.76604,6.67415 C 3.82195,6.86229 3.53886,6.84507 3.59837,7.05624 C 3.48345,7.10064 3.13531,7.10242 3.38994,7.21525 C 3.52308,7.1807 3.76112,6.99772 3.69843,7.18815 C 3.86236,7.19917 4.24147,7.3642 3.86444,7.33561 C 3.00508,7.35692 2.14588,7.3485 1.28664,7.35228 C 1.30521,6.29442 1.32377,5.23655 1.34234,4.1787 L 1.34234,4.1787 z M 5.35142,7.29836 C 5.31304,7.19765 5.2691,7.38209 5.35142,7.29836 z M 5.18898,7.14257 C 5.3642,7.10233 5.4662,6.99579 5.2086,7.01926 C 5.01617,6.92647 4.90291,7.26872 5.1422,7.16269 L 5.18898,7.14257 L 5.18898,7.14257 z M 5.60317,7.00058 C 5.49265,6.81519 5.42409,7.20719 5.60317,7.00058 z M 5.33376,6.79596 C 5.33447,6.68956 5.23655,6.89504 5.33376,6.79596 z M 3.64237,6.68843 C 3.65947,6.5711 3.47011,6.79794 3.64237,6.68843 z M 5.32537,6.51987 C 5.34891,6.25493 4.96727,6.57294 5.26149,6.60147 C 5.31343,6.63134 5.33379,6.55051 5.32537,6.51987 z M 3.56623,5.68539 C 3.47062,5.57898 3.46285,5.78883 3.56623,5.68539 z M 3.95601,7.09135 C 3.8205,6.8635 4.15502,7.23931 3.95601,7.09135 L 3.95601,7.09135 z M 4.08947,6.79596 C 4.09248,6.68956 4.18321,6.89504 4.08947,6.79596 z M 3.88459,6.77844 C 4.0207,6.75507 3.9055,6.82184 3.88459,6.77844 z M 3.88092,6.61087 C 3.99759,6.51303 3.89294,6.70032 3.88092,6.61087 z M 4.93406,6.18871 C 5.10613,5.97725 5.02161,6.28593 4.93406,6.18871 z M 4.89,5.23518 C 4.91062,4.95389 5.03041,5.35453 4.89,5.23518 L 4.89,5.23518 z "
   style="fill:#b8461d"
   id="path2173" />
    <path
   d="M 1.34235,4.17818 C 1.36091,3.12049 1.37948,2.0628 1.39804,1.00511 C 1.57659,1.01604 1.77521,0.9781 1.93863,1.0342 C 2.0299,1.03876 2.11572,0.97025 1.99582,1.11093 C 1.8631,1.28793 1.51454,1.35562 1.65119,1.66388 C 1.66902,1.93607 1.61542,2.2597 1.72744,2.47129 C 1.72769,2.69588 1.71195,3.2106 2.05368,3.17753 C 2.36565,3.16365 2.68623,3.16482 2.97571,3.29002 C 3.25808,3.25821 3.5252,3.2547 3.80632,3.2581 C 3.91588,3.3624 4.01701,3.42522 4.15904,3.33207 C 4.44114,3.39775 4.70843,3.30033 4.98434,3.23231 C 5.27073,3.29 5.58733,3.16905 5.85158,3.33312 C 6.17615,3.32352 6.49188,3.23967 6.82169,3.28749 C 6.93502,3.18058 6.99678,2.93333 7.13676,2.81836 C 7.17234,3.51657 7.13039,4.21951 7.12724,4.9197 C 7.11303,5.73021 7.09879,6.54073 7.08457,7.35124 C 6.58584,7.34527 6.08524,7.36667 5.58814,7.33345 C 5.52171,7.19489 4.88875,7.27692 5.27328,7.12325 C 5.62365,6.99555 5.05391,6.9487 4.95721,7.04687 C 4.88442,6.94361 5.10783,6.92347 5.14806,6.88694 C 5.28251,7.12967 5.51816,6.61046 5.19413,6.76664 C 5.00644,6.77442 5.21321,6.53933 5.32544,6.609 C 5.40062,6.42761 5.30392,6.38399 5.14483,6.42097 C 4.93262,6.38176 5.38279,6.22658 5.45869,6.33464 C 5.53001,6.15708 5.36246,6.14329 5.2217,6.09153 C 5.18694,5.96455 5.25697,5.80548 5.0768,5.86456 C 5.00581,5.74147 5.3569,5.76308 5.31563,5.56639 C 5.37707,5.41775 5.09559,5.65718 5.22171,5.41651 C 5.26082,5.2993 4.91379,5.3185 5.12207,5.179 C 5.25735,5.10681 5.08912,4.92489 5.13453,4.82114 C 4.93716,4.57897 4.62542,4.61434 4.34718,4.67724 C 4.09147,4.73396 3.67747,4.67425 3.70457,5.02926 C 3.55616,5.0788 3.55387,5.1351 3.61403,5.2027 C 3.37485,5.35829 3.97439,5.36258 3.65348,5.41889 C 3.59355,5.60712 3.46411,5.67778 3.31536,5.55646 C 3.33475,5.70649 3.85779,5.80248 3.51389,5.93127 C 3.61153,6.0207 3.5843,6.20064 3.78283,6.13401 C 3.64399,6.26798 3.45215,6.34045 3.65481,6.51565 C 3.55314,6.55276 3.40703,6.84047 3.65896,6.73269 C 3.78037,6.57215 3.78225,6.89863 3.61817,6.83577 C 3.58767,6.94499 3.30677,6.91066 3.54335,6.96427 C 3.75482,7.15079 2.98993,7.00232 3.35462,7.22903 C 3.55121,7.12225 3.91047,7.24407 4.04048,7.32424 C 3.74823,7.40203 3.4461,7.2903 3.17896,7.33991 C 2.54816,7.35965 1.91741,7.3482 1.28666,7.35124 C 1.30522,6.29356 1.32379,5.23586 1.34235,4.17818 L 1.34235,4.17818 z M 3.4585,7.29836 C 3.38909,7.1918 3.3943,7.40131 3.4585,7.29836 z M 5.70928,7.27192 C 5.61367,7.16551 5.60591,7.37536 5.70928,7.27192 z M 5.60294,7.04054 C 5.64875,6.68828 5.30602,7.22044 5.60294,7.04054 z M 5.54643,6.83484 C 5.622,6.69814 5.32707,6.95764 5.54643,6.83484 z M 5.69024,6.84884 C 5.62083,6.74228 5.62604,6.95179 5.69024,6.84884 z M 5.59455,6.26712 C 5.52514,6.16055 5.53035,6.37006 5.59455,6.26712 z M 5.24273,7.33142 C 5.48402,7.25798 5.38336,7.40967 5.24273,7.33142 z M 4.93772,7.1873 C 5.10194,7.14236 4.92039,7.28626 4.93772,7.1873 z M 5.06185,6.56899 C 5.08925,6.47524 5.0763,6.68377 5.06185,6.56899 z M 4.99653,4.89212 C 5.1022,4.79672 5.04532,4.98825 4.99653,4.89212 z M 7.1281,2.6728 C 7.13978,2.54704 7.20006,2.75118 7.1281,2.6728 z M 7.14492,2.52334 C 7.17231,2.42957 7.15937,2.63812 7.14492,2.52334 z M 7.15049,2.20603 C 7.17788,2.11227 7.16494,2.32081 7.15049,2.20603 z "
   style="fill:#ae330e"
   id="path2171" />
    <path
   d="M 1.32277,5.29403 C 1.3348,4.6082 1.34684,3.92236 1.35888,3.23653 C 1.80276,3.23533 2.24817,3.20224 2.69068,3.23098 C 2.93356,3.256 3.12224,3.47757 3.35738,3.44376 C 3.61005,3.3313 3.78252,3.50656 3.81484,3.74468 C 3.98357,3.7222 4.14032,3.5384 4.33157,3.68474 C 4.57677,3.76943 4.77396,3.61157 4.97276,3.50126 C 5.19997,3.43445 5.40577,3.21004 5.65769,3.28376 C 5.88788,3.4531 6.1546,3.31201 6.40655,3.31393 C 6.63212,3.33617 6.88723,3.34732 7.08286,3.3066 C 7.18801,3.52167 7.12193,3.78334 7.13955,4.01832 C 7.12627,5.12928 7.10305,6.24027 7.08457,7.35124 C 6.59672,7.34712 6.10783,7.36272 5.62097,7.33559 C 5.46367,7.30245 5.87721,7.30156 5.67905,7.24323 C 5.48993,7.29722 5.09538,7.14117 5.47959,7.07933 C 5.6549,7.18643 5.66183,6.87859 5.69802,6.80407 C 5.53691,6.71237 5.28579,6.80824 5.13838,6.70191 C 5.2588,6.64629 5.38996,6.6725 5.40421,6.49534 C 5.45881,6.56547 5.60778,6.57557 5.48107,6.45359 C 5.42732,6.40595 5.23448,6.3309 5.42898,6.36456 C 5.60037,6.33627 5.73797,6.21186 5.49388,6.18754 C 5.48987,6.02614 5.25212,6.18099 5.24414,5.96654 C 5.23956,5.8151 5.17354,5.75892 5.36403,5.71649 C 5.48001,5.68668 5.63792,5.5626 5.45092,5.52231 C 5.34901,5.43272 5.24642,5.31524 5.15944,5.22471 C 5.26482,5.22745 5.43821,5.22134 5.28885,5.12738 C 5.24294,4.95571 5.36169,4.75332 5.12589,4.71346 C 5.03062,4.53606 4.68224,4.62693 4.48873,4.6349 C 4.18736,4.68483 3.87834,4.7052 3.58421,4.79104 C 3.44225,4.90037 3.5966,5.18891 3.47347,5.25765 C 3.31049,5.1879 3.46097,5.41141 3.30688,5.42566 C 3.42427,5.49926 3.53999,5.21344 3.60803,5.41793 C 3.5357,5.59914 3.26551,5.43051 3.19497,5.57856 C 3.30383,5.65823 3.50042,5.70769 3.55545,5.81475 C 3.48896,5.8946 3.28831,5.65493 3.38789,5.85502 C 3.45547,5.99835 3.50513,6.12366 3.6305,6.2128 C 3.57456,6.35436 3.23521,6.10987 3.40876,6.29356 C 3.4473,6.32135 3.70671,6.51123 3.54443,6.49776 C 3.29117,6.45921 3.66227,6.65059 3.44316,6.66374 C 3.19,6.67479 3.75594,6.82444 3.50688,6.86469 C 3.41778,6.82013 3.32839,7.01133 3.4589,6.98836 C 3.40358,7.11384 3.08766,7.02451 3.30135,7.20176 C 3.36432,7.3335 3.48565,7.35952 3.50651,7.211 C 3.6631,7.20833 3.93654,7.27941 4.00916,7.32591 C 3.77641,7.33248 3.57891,7.32568 3.35706,7.33217 C 3.17994,7.31969 2.88798,7.3649 2.66732,7.34937 C 2.20708,7.35143 1.74688,7.35079 1.28665,7.35152 C 1.29869,6.66569 1.31073,5.97986 1.32277,5.29403 L 1.32277,5.29403 z M 3.15992,7.30883 C 3.05429,7.28433 3.10642,7.35726 3.15992,7.30883 z M 2.99356,6.63731 C 2.92415,6.53074 2.92936,6.74026 2.99356,6.63731 z M 3.3997,6.12324 C 3.32323,6.01469 3.33863,6.1842 3.3997,6.12324 z M 3.42852,5.98947 C 3.3244,5.82963 3.33222,6.14389 3.42852,5.98947 z M 5.37648,5.87048 C 5.37719,5.76408 5.27927,5.96957 5.37648,5.87048 z M 5.58785,5.81534 C 5.46615,5.75635 5.5834,5.95136 5.58785,5.81534 z M 5.75911,5.56418 C 5.62775,5.53099 5.74617,5.71988 5.75911,5.56418 z M 5.36346,6.98927 C 5.19309,6.84757 5.68061,6.88209 5.42409,7.00443 L 5.4003,6.99871 L 5.36346,6.98927 L 5.36346,6.98927 z "
   style="fill:#8b1104"
   id="path2169" />
    <path
   d="M 1.32282,5.29086 C 1.33488,4.60389 1.34693,3.91692 1.35899,3.22995 C 1.65627,3.3016 1.96996,3.2437 2.27388,3.24923 C 2.38379,3.2567 2.51117,3.22576 2.61318,3.25068 C 2.72683,3.37226 2.82626,3.50982 2.87013,3.67318 C 3.04886,3.84147 3.37856,3.70324 3.53192,3.9237 C 3.7239,4.11657 4.01853,4.14769 4.274,4.13261 C 4.50063,4.18892 4.83107,4.18889 4.9416,3.94523 C 5.14598,3.86548 5.27006,3.65237 5.48272,3.60034 C 5.74351,3.47351 6.0172,3.39476 6.30032,3.34515 C 6.54847,3.31133 6.81922,3.43701 7.04743,3.30855 C 7.22167,3.4731 7.10849,3.77497 7.13997,3.99846 C 7.12646,5.11604 7.10318,6.23365 7.08457,7.35124 C 6.60135,7.34732 6.11699,7.36206 5.63484,7.33633 C 5.80289,7.34406 5.82322,7.25746 5.65491,7.20332 C 5.47618,7.16724 5.52802,7.17466 5.68212,7.16008 C 5.7915,7.09992 5.58981,6.96029 5.74096,6.86987 C 5.83329,6.77317 5.59511,6.70908 5.77312,6.65172 C 5.89199,6.61685 5.43383,6.66091 5.61211,6.51687 C 5.77243,6.48387 5.87346,6.4784 5.90556,6.30719 C 5.98816,6.26508 6.24555,6.25207 6.03124,6.1669 C 5.87812,6.0816 5.45492,6.26489 5.53815,5.98069 C 5.5508,5.88495 5.70137,5.81283 5.67233,5.76989 C 5.84519,5.79799 5.82764,5.52397 6.01643,5.53917 C 6.12665,5.30361 5.56564,5.51039 5.78852,5.3039 C 5.70162,5.31071 5.44902,5.23972 5.5674,5.17754 C 5.70534,5.21204 5.69198,5.06001 5.61865,4.99609 C 5.70113,4.89834 5.83618,4.69566 5.5948,4.74448 C 5.46368,4.75561 5.35704,4.7117 5.44108,4.6295 C 5.07503,4.6046 4.70677,4.56135 4.33998,4.62237 C 4.05316,4.64867 3.76508,4.69281 3.478,4.69253 C 3.28223,4.72114 3.15462,4.91294 3.0414,5.02468 C 3.14434,5.02579 3.32694,5.15494 3.10504,5.12665 C 2.99441,5.0731 2.86195,5.22058 3.05289,5.16672 C 3.16631,5.16238 3.38354,5.27913 3.17895,5.31784 C 3.19649,5.50408 2.99507,5.27255 3.05715,5.46894 C 2.94243,5.6041 2.75573,5.69156 2.57185,5.63655 C 2.42025,5.65788 2.87578,5.75271 2.75815,5.83371 C 2.64715,5.89391 2.56586,6.12806 2.77689,6.04418 C 2.93865,6.10597 3.15162,6.18151 3.28772,6.19558 C 3.19118,6.25041 2.77456,6.15947 3.02051,6.33692 C 3.118,6.3879 3.49637,6.42893 3.2401,6.54159 C 3.31449,6.56533 3.60528,6.60941 3.3573,6.64564 C 3.12102,6.72895 3.6186,6.73129 3.39481,6.85151 C 3.34746,7.04123 3.08756,6.85516 3.15297,7.10339 C 3.2585,7.17809 3.39514,7.32451 3.1904,7.33908 C 2.55576,7.35586 1.92121,7.34881 1.28665,7.35176 C 1.29871,6.66479 1.31076,5.97782 1.32282,5.29086 L 1.32282,5.29086 z M 3.18699,7.30657 C 3.01005,7.28691 3.1045,7.34103 3.18699,7.30657 z M 3.06146,7.01207 C 3.03984,6.74456 2.83624,7.2238 3.04974,7.06697 L 3.06146,7.01207 L 3.06146,7.01207 z M 2.78804,7.03394 C 2.70681,6.92236 2.66035,7.12376 2.78804,7.03394 z M 5.86086,6.95527 C 5.66814,6.8886 5.77863,7.07242 5.86086,6.95527 z M 3.28028,6.75924 C 3.02127,6.57935 3.44409,6.97677 3.28028,6.75924 z M 3.0367,6.65052 C 3.05446,6.32411 2.75146,6.82471 3.0367,6.65052 z M 2.90424,5.48401 C 3.07288,5.29307 2.61129,5.54056 2.85064,5.51418 L 2.87757,5.50059 L 2.90425,5.48401 L 2.90424,5.48401 z M 3.51191,7.27192 C 3.58506,7.16536 3.5725,7.37487 3.51191,7.27192 z M 5.21137,6.69857 C 5.32945,6.67915 5.19557,6.74677 5.21137,6.69857 L 5.21137,6.69857 z M 5.44091,6.68861 C 5.77143,6.67214 5.23555,6.75805 5.44091,6.68861 z M 5.67254,6.34927 C 5.80706,6.17892 5.82218,6.45102 5.67254,6.34927 z M 3.09706,6.08385 C 3.10875,5.95808 3.16902,6.16223 3.09706,6.08385 z M 5.4198,5.94815 C 5.53248,5.79473 5.47565,6.03447 5.4198,5.94815 z M 2.84725,5.92337 C 2.9204,5.8168 2.90783,6.02631 2.84725,5.92337 z M 5.35999,5.77309 C 5.47806,5.75368 5.34419,5.8213 5.35999,5.77309 L 5.35999,5.77309 z "
   style="fill:#6e0702"
   id="path2167" />
    <path
   d="M 1.32266,5.30019 C 1.33466,4.61651 1.34666,3.93282 1.35866,3.24914 C 1.60879,3.33171 1.88747,3.24239 2.13797,3.31282 C 2.39129,3.41881 2.50875,3.66518 2.46218,3.94312 C 2.54723,4.20389 2.93687,4.1112 3.15631,4.09912 C 3.39567,4.01418 3.50571,4.3492 3.74818,4.31887 C 3.89263,4.4366 4.2959,4.26731 4.24985,4.52723 C 4.03471,4.65156 3.74721,4.59282 3.50367,4.63724 C 3.16505,4.66323 2.82993,4.73042 2.49079,4.7433 C 2.37217,4.87737 2.11698,4.75641 2.10881,4.95134 C 1.77417,5.02851 2.39387,5.13456 2.09334,5.26231 C 2.15601,5.34411 2.19624,5.55261 1.98972,5.57181 C 1.83847,5.74304 2.26619,5.72419 2.38597,5.74861 C 2.68561,5.81117 2.18681,5.88479 2.12141,5.98029 C 2.03384,6.15164 1.98064,5.99771 1.94056,5.88654 C 2.23553,5.86019 1.63034,5.75358 1.8088,5.96218 C 1.69428,6.01604 1.89375,6.05145 1.85161,6.15467 C 2.05115,6.18033 2.22927,6.26111 2.46282,6.25215 C 2.63297,6.35282 2.7979,6.38242 3.00524,6.41784 C 3.18211,6.45888 2.81465,6.51256 2.75896,6.50151 C 2.60033,6.43847 2.32503,6.4629 2.26393,6.58526 C 2.44161,6.69535 2.74691,6.49854 2.84633,6.66703 C 2.60954,6.65418 2.77589,6.93408 2.55723,6.96072 C 2.44778,7.05958 2.79109,7.08957 2.86748,7.08917 C 3.03582,7.11778 3.12689,7.24832 2.90974,7.29676 C 2.88863,7.3192 3.07766,7.33915 2.87665,7.33608 C 2.62306,7.34396 2.36723,7.31517 2.11718,7.30785 C 1.99902,7.39155 1.77308,7.33461 1.61234,7.35124 C 1.50378,7.35124 1.39523,7.35124 1.28666,7.35124 C 1.29866,6.66756 1.31066,5.98388 1.32266,5.30019 L 1.32266,5.30019 z M 2.35141,7.02479 C 2.28104,6.95525 1.89592,7.0395 2.17701,7.05609 C 2.23029,7.05092 2.30996,7.06693 2.35141,7.02479 z M 1.78247,7.00749 C 1.78318,6.9011 1.68525,7.10658 1.78247,7.00749 z M 2.27689,6.74308 C 2.20748,6.63651 2.2127,6.84602 2.27689,6.74308 z M 2.3428,6.38182 C 2.20751,6.35843 2.32037,6.42521 2.3428,6.38182 z M 5.82073,7.33302 C 5.96205,7.27771 5.63266,7.13479 5.86323,7.18073 C 5.86203,7.37577 6.18615,7.16103 6.05631,7.12421 C 5.92879,7.08449 5.81624,7.07762 5.97197,6.98323 C 5.93884,6.83431 6.22239,6.89174 6.22589,7.00469 C 6.44211,7.00735 6.14766,6.92606 6.25592,6.8196 C 6.17288,6.75893 5.81588,6.72749 5.884,6.68197 C 6.04564,6.57802 6.20633,6.43966 6.42864,6.46102 C 6.39021,6.3945 6.19681,6.341 6.41006,6.32043 C 6.54586,6.21217 7.00725,6.38253 6.78844,6.11727 C 6.55109,6.07871 6.31778,6.19403 6.08481,6.10988 C 5.9128,6.17955 5.77315,5.96548 6.01548,5.99836 C 6.21697,6.09019 6.22449,5.92321 6.07667,5.83197 C 6.05025,5.71004 6.41755,5.82979 6.39972,5.60729 C 6.47475,5.56792 6.71936,5.5452 6.50462,5.50979 C 6.18208,5.57412 6.32321,5.17258 6.09955,5.0654 C 6.03049,4.95007 6.55421,5.04657 6.28325,4.87893 C 6.28257,4.87844 6.55841,4.80757 6.35252,4.77039 C 6.07581,4.83851 6.00308,4.5415 5.73434,4.59615 C 5.44096,4.57001 5.13271,4.58419 4.84949,4.5252 C 4.96877,4.30953 5.20475,4.18859 5.41566,4.07566 C 5.6429,4.00709 5.85333,3.88793 6.0275,3.71544 C 6.21436,3.56865 6.40791,3.37326 6.66857,3.397 C 6.8092,3.41118 6.95177,3.39465 7.06289,3.34876 C 7.21528,3.52391 7.11631,3.79789 7.14208,4.01565 C 7.12642,4.70296 7.13219,5.39126 7.08661,6.07788 C 7.05994,6.22567 7.12343,6.48644 7.09612,6.68716 C 7.09247,6.90851 7.0884,7.12988 7.08457,7.35124 C 6.66339,7.34582 6.24079,7.35655 5.82073,7.33302 L 5.82073,7.33302 z M 6.08593,7.30729 C 5.95064,7.28391 6.0635,7.35069 6.08593,7.30729 z M 6.20449,7.30883 C 6.09884,7.28433 6.15098,7.35726 6.20449,7.30883 z M 6.31937,7.20581 C 6.18616,6.97191 6.2292,7.42838 6.31937,7.20581 z M 6.47031,6.90173 C 6.43789,6.80358 6.37659,6.98034 6.47031,6.90173 z M 6.48298,6.58442 C 6.5577,6.41844 6.32462,6.75785 6.48298,6.58442 z M 6.74387,6.39932 C 6.71143,6.3085 6.54972,6.46628 6.71644,6.418 L 6.74387,6.39932 z M 6.38065,5.97625 C 6.38137,5.86985 6.28343,6.07533 6.38065,5.97625 z M 6.55764,5.69666 C 6.48625,5.54663 6.37858,5.87432 6.55764,5.69666 z M 3.15496,7.24548 C 3.26388,7.13339 3.32309,7.33547 3.15496,7.24548 z M 3.2007,6.61924 C 3.31878,6.59982 3.1849,6.66744 3.2007,6.61924 L 3.2007,6.61924 z M 6.00175,6.38586 C 5.89077,6.28382 6.239,6.41409 6.0393,6.40991 L 6.00175,6.38586 L 6.00175,6.38586 z M 2.33168,5.1301 C 2.38537,5.03571 2.4396,5.23095 2.33168,5.1301 z "
   style="fill:#500200"
   id="path2165" />
    <path
   d="M 1.54011,7.32727 C 1.61474,7.30432 1.86994,7.26377 1.63884,7.20162 C 1.54759,7.14054 1.82839,7.17451 1.87814,7.13599 C 2.02407,7.09145 2.22349,7.27796 2.19097,7.11367 C 2.31458,7.01819 2.62529,7.15949 2.3546,7.21601 C 2.16197,7.29894 1.8303,7.15907 1.75809,7.34974 C 1.68631,7.34939 1.6054,7.36077 1.54011,7.32727 z M 1.88717,7.32311 C 1.98257,7.28552 2.18806,7.37142 1.98101,7.34877 C 1.97854,7.34454 1.85668,7.36153 1.88717,7.32311 z M 6.2776,7.32265 C 6.44637,7.31923 6.57727,7.21819 6.63497,7.3248 C 6.69288,7.35212 6.22253,7.36156 6.2776,7.32265 z M 6.74097,7.31883 C 6.86997,7.27891 7.01074,7.32881 7.04338,7.17152 C 7.21552,7.31581 6.83892,7.37442 6.74097,7.31883 z M 1.28759,7.29836 C 1.36074,7.1918 1.34818,7.40131 1.28759,7.29836 z M 1.32146,7.2544 C 1.14268,7.04025 1.64669,7.10992 1.43028,7.24693 C 1.39592,7.2513 1.35453,7.29169 1.32146,7.2544 z M 7.04616,7.06038 C 7.08837,6.81158 7.09331,7.3042 7.04616,7.06038 L 7.04616,7.06038 z M 1.59603,7.0864 C 1.75303,7.02551 1.59709,7.1836 1.59603,7.0864 z M 6.79287,7.0952 C 6.91096,7.07578 6.77708,7.1434 6.79287,7.0952 L 6.79287,7.0952 z M 6.58805,6.98105 C 6.71225,6.87411 6.72859,7.08456 6.58805,6.98105 z M 6.85331,6.95182 C 6.99362,6.85663 7.04382,7.03386 6.85331,6.95182 z M 7.02034,6.87643 C 6.97191,6.73057 7.19323,6.85031 7.04291,6.90622 L 7.02034,6.87643 L 7.02034,6.87643 z M 2.01003,6.86384 C 1.87726,6.74879 1.63628,6.92706 1.44625,6.85577 C 1.23881,6.90356 1.27821,6.66005 1.46805,6.71047 C 1.66798,6.61159 1.83754,6.67608 2.00653,6.76883 C 2.16042,6.72286 2.26695,6.87576 2.05623,6.89957 C 2.03465,6.90354 2.008,6.88723 2.01003,6.86384 L 2.01003,6.86384 z M 7.03898,6.69019 C 6.99815,6.62544 6.8332,6.53019 7.00467,6.58326 C 7.15493,6.52225 7.10149,6.89652 7.03898,6.69019 z M 6.51342,6.70766 C 6.59062,6.55401 6.72193,6.66904 6.55362,6.74167 C 6.53079,6.74897 6.51108,6.72842 6.51342,6.70766 z M 2.04699,6.67187 C 2.21962,6.65234 2.05019,6.7127 2.04699,6.67187 z M 1.44276,6.54476 C 1.21884,6.50686 1.33598,6.32198 1.52539,6.3597 C 1.68363,6.3398 1.88287,6.52999 1.61124,6.51674 C 1.55789,6.54 1.48813,6.63832 1.44276,6.54476 z M 2.11795,6.44693 C 2.27874,6.38085 2.13318,6.56979 2.11795,6.44693 z M 1.79314,6.39932 C 1.6876,6.26235 2.08487,6.44222 2.02874,6.44848 C 1.94835,6.44756 1.85228,6.4664 1.79314,6.39932 z M 2.75255,6.4335 C 2.92447,6.41323 2.84515,6.46866 2.73758,6.43801 L 2.75255,6.4335 L 2.75255,6.4335 z M 7.03555,6.37288 C 7.13683,6.28474 7.07429,6.46533 7.03555,6.37288 z M 1.83564,6.24067 C 1.92858,6.12722 1.85013,6.34467 1.83564,6.24067 z M 1.31358,5.8176 C 1.38673,5.71103 1.37417,5.92055 1.31358,5.8176 z M 6.95507,5.67934 C 6.75066,5.66096 7.04148,5.60932 6.92421,5.50723 C 7.01838,5.30749 6.47933,5.37351 6.79464,5.28086 C 6.88053,5.30496 7.14926,5.15634 7.1204,5.31179 C 7.11307,5.42796 7.13747,5.59028 6.98404,5.50213 C 6.91329,5.58051 7.13275,5.58074 7.08348,5.6485 C 7.21161,5.72704 6.98907,5.70141 6.95507,5.67934 L 6.95507,5.67934 z M 1.51898,5.42077 C 1.54828,5.28045 1.73726,5.49296 1.54607,5.43994 L 1.51898,5.42077 L 1.51898,5.42077 z M 1.3217,5.35486 C 1.47743,5.18452 1.38262,5.51616 1.3217,5.35486 z M 6.90653,5.1367 C 6.70092,4.95105 7.22685,4.63557 7.12557,5.01552 C 7.11851,5.09518 7.15806,5.2222 7.03406,5.18299 C 6.98851,5.18179 6.93876,5.17072 6.90653,5.1367 L 6.90653,5.1367 z M 1.32587,5.11688 C 1.39528,4.97919 1.3775,5.24962 1.32587,5.11688 z M 1.34466,4.04637 C 1.34899,3.79971 1.35332,3.55306 1.35765,3.3064 C 1.49666,3.3321 1.68453,3.29479 1.75653,3.44538 C 1.90847,3.59322 2.01213,3.79353 2.01314,4.0099 C 2.08444,4.14028 2.13944,4.34575 2.21654,4.4382 C 2.43976,4.44409 2.66728,4.41723 2.8868,4.45798 C 3.13946,4.67836 2.62897,4.62774 2.49648,4.64935 C 2.14153,4.67553 1.77853,4.67076 1.43174,4.76218 C 1.25904,4.79042 1.37298,4.43409 1.3413,4.29376 C 1.34203,4.2113 1.34323,4.12884 1.34466,4.04637 L 1.34466,4.04637 z M 7.06671,4.7081 C 6.96837,4.61949 7.25211,4.70194 7.06671,4.7081 z M 6.25965,4.57396 C 6.10737,4.54654 5.70596,4.58262 5.71574,4.46904 C 5.93603,4.36156 6.18203,4.27383 6.35947,4.09995 C 6.59683,3.88177 6.82303,3.64942 7.07391,3.44718 C 7.23047,3.55324 7.10843,3.89678 7.14172,4.09084 C 7.12144,4.29545 7.22217,4.6956 6.87723,4.59707 C 6.67109,4.59562 6.46525,4.58556 6.25965,4.57396 L 6.25965,4.57396 z "
   style="fill:#320000"
   id="path2163" />
   </g>
   <path
   d="M 1.60928,0.45335 C 1.65193,0.85367 1.75145,1.37299 1.81315,1.73897 C 1.40898,1.79918 0.96811,1.88515 0.54879,1.92593 L 1.60928,0.45335 L 1.60928,0.45335 z "
   style="fill:#dddddd;stroke:#ffffff;stroke-width:0.14111"
   id="_201469304" />
   <path
   d="M 0.62418,1.96276 C 0.82776,3.72944 1.15322,5.72897 0.32152,8.67346 C 3.00833,8.17813 4.71317,8.28727 7.30992,8.60248 C 7.74521,6.02074 7.82026,3.34895 7.39998,0.58709 C 5.99238,0.27568 3.77842,0.24339 1.68467,0.4902 L 0.62418,1.96276 L 0.62418,1.96276 z "
   style="fill:none;stroke:#c8c8c8;stroke-width:0.11007"
   id="_43077240" />
   <path
   d="M 1.68467,0.4902 C 1.73714,0.94566 1.80789,1.3724 1.88856,1.77581 C 1.47747,1.84985 1.05333,1.91217 0.62418,1.96276"
   style="fill:none;stroke:#c8c8c8;stroke-width:0.11007"
   id="_43075416" />
  </g>
 </g>
</svg>